<?xml version="1.0" encoding="iso-8859-1"?>
<!-- Generator: Adobe Illustrator 19.0.0, SVG Export Plug-In . SVG Version: 6.00 Build 0)  -->
<svg version="1.1" id="Capa_1" xmlns="http://www.w3.org/2000/svg" xmlns:xlink="http://www.w3.org/1999/xlink" x="0px" y="0px"
	 viewBox="0 0 59 59" style="enable-background:new 0 0 59 59;fill: red;" xml:space="preserve">
<g>
	<path d="M20.894,27.606c-0.781-0.781-2.047-0.781-2.828,0s-0.781,2.047,0,2.828l9.979,9.979C28.419,40.789,28.928,41,29.458,41
		c0.007,0,0.014-0.002,0.021-0.002c0.007,0,0.014,0.002,0.021,0.002c0.665,0,1.249-0.328,1.613-0.827l9.78-9.78
		c0.781-0.781,0.781-2.047,0-2.828s-2.047-0.781-2.828,0L31.5,34.13V2c0-1.104-0.896-2-2-2s-2,0.896-2,2v32.214L20.894,27.606z"/>
	<path d="M33.5,16v13.302l3.151-3.15c1.563-1.563,4.096-1.563,5.656,0c1.563,1.562,1.563,4.095,0,5.656l-9.779,9.778
		C31.795,42.444,30.718,43,29.5,43c-0.007,0-0.014-0.002-0.021-0.002S29.465,43,29.458,43c-1.062,0-2.078-0.422-2.828-1.172
		l-9.979-9.979c-1.563-1.562-1.563-4.095,0-5.656c1.563-1.563,4.096-1.563,5.656,0l3.192,3.192V16h-18v43h44V16H33.5z"/>
</g>
</svg>
