<?xml version='1.0' encoding='iso-8859-1'?>
<svg version="1.1" xmlns="http://www.w3.org/2000/svg" viewBox="0 0 24.2 24.2" xmlns:xlink="http://www.w3.org/1999/xlink" enable-background="new 0 0 24.2 24.2">
  <g>
    <path d="m24.1,15.1v2c0,0.6-0.4,1-1,1h-1c-0.4,0-0.7,0.5-0.4,0.9l2,2c0.4,0.4 0.4,1 0,1.4l-1.4,1.4c-0.4,0.4-1,0.4-1.4,0l-2-2c-0.3-0.3-0.9-0.1-0.9,0.4v1c0,0.6-0.4,1-1,1h-2c-0.6,0-1-0.4-1-1v-8c0-0.6 0.4-1 1-1h8c0.7-0.1 1.1,0.3 1.1,0.9z"/>
    <path d="M3.2,0.4l2,2C5.5,2.7,6.1,2.5,6.1,2V1c0-0.6,0.4-1,1-1h2c0.6,0,1,0.4,1,1v8c0,0.6-0.4,1-1,1h-8c-0.6,0-1-0.4-1-1V7   c0-0.6,0.4-1,1-1h1c0.4,0,0.7-0.5,0.4-0.9l-2-2c-0.4-0.4-0.4-1,0-1.4l1.4-1.4C2.2,0,2.8,0,3.2,0.4z"/>
    <g>
      <path d="m24.1,9.1v-2c0-0.6-0.4-1-1-1h-1c-0.4,0-0.7-0.5-0.4-0.9l2-2c0.4-0.4 0.4-1 0-1.4l-1.4-1.4c-0.4-0.4-1-0.4-1.4,0l-2,2c-0.3,0.3-0.9,0.1-0.9-0.4v-1c0-0.6-0.4-1-1-1h-2c-0.6,0-1,0.4-1,1v8c0,0.6 0.4,1 1,1h8c0.7,0.1 1.1-0.3 1.1-0.9z"/>
      <path d="m3.2,23.8l2-2c0.3-0.3 0.9-0.1 0.9,0.4v1c0,0.6 0.4,1 1,1h2c0.6,0 1-0.4 1-1v-8c0-0.6-0.4-1-1-1h-8c-0.6,0-1,0.4-1,1v2c0,0.6 0.4,1 1,1h1c0.4,0 0.7,0.5 0.4,0.9l-2,2c-0.4,0.4-0.4,1 0,1.4l1.4,1.4c0.3,0.3 0.9,0.3 1.3-0.1z"/>
    </g>
  </g>
</svg>
