<?xml version="1.0" encoding="iso-8859-1"?>
<!-- Generator: Adobe Illustrator 18.0.0, SVG Export Plug-In . SVG Version: 6.00 Build 0)  -->
<!DOCTYPE svg PUBLIC "-//W3C//DTD SVG 1.1//EN" "http://www.w3.org/Graphics/SVG/1.1/DTD/svg11.dtd">
<svg version="1.1" id="Capa_1" xmlns="http://www.w3.org/2000/svg" xmlns:xlink="http://www.w3.org/1999/xlink" x="0px" y="0px"
	 viewBox="0 0 512 512" style="fill: #a8f500;" xml:space="preserve">
    <path d="M256,0C114.617,0,0,114.617,0,256s114.617,256,256,256s256-114.617,256-256S397.383,0,256,0z M344.484,269.57l-128,80
	c-2.594,1.617-5.531,2.43-8.484,2.43c-2.672,0-5.344-0.664-7.75-2.008c-5.094-2.82-8.25-8.172-8.25-13.992V176
	c0-5.82,3.156-11.172,8.25-13.992c5.047-2.844,11.281-2.656,16.234,0.422l128,80c4.672,2.93,7.516,8.055,7.516,13.57
	S349.156,266.641,344.484,269.57z"/>
</svg>
