<?xml version="1.0" encoding="iso-8859-1"?>
<!-- Generator: Adobe Illustrator 18.0.0, SVG Export Plug-In . SVG Version: 6.00 Build 0)  -->
<!DOCTYPE svg PUBLIC "-//W3C//DTD SVG 1.1//EN" "http://www.w3.org/Graphics/SVG/1.1/DTD/svg11.dtd">
<svg version="1.1" id="Capa_1" xmlns="http://www.w3.org/2000/svg" xmlns:xlink="http://www.w3.org/1999/xlink" x="0px" y="0px"
	 viewBox="0 0 512 512" style="fill: #a8f500;" xml:space="preserve">
  <path id="svg_1" fill-rule="evenodd" fill="#010101" d="m140.954212,340.854l115.476,112.842c3.271,3.275 7.814,5.27 12.812,5.27c9.988,0 18.169,-8.081 18.169,-17.993l0,-381.948c0,-9.902 -8.181,-17.991 -18.169,-17.991c-5.093,0 -9.724,2.09 -12.998,5.452l-115.203,112.66l-71.681,0c-20.077,0 -36.34,16.264 -36.34,36.343l0,109.025c0,20.078 16.264,36.34 36.34,36.34l71.594,0zm229.859,-20.442c16.804,-16.892 27.166,-40.158 27.166,-65.868c0,-25.713 -10.362,-48.969 -27.166,-65.871c-8.72,-8.721 -22.804,-8.721 -31.435,0c-8.724,8.634 -8.724,22.713 0,31.437c8.723,8.815 14.168,20.988 14.168,34.434c0,13.449 -5.445,25.623 -14.168,34.435c-8.724,8.723 -8.724,22.715 0,31.434c8.631,8.635 22.715,8.722 31.435,-0.001z" clip-rule="evenodd"/>
</svg>